<svg xmlns="http://www.w3.org/2000/svg" viewBox="0 0 320 48" shape-rendering="crispEdges">
  <!-- Minimal pixel ridge  decorative footer/hero divider -->
  <rect width="320" height="48" fill="transparent"/>
  <g fill="#ffffff">
    <rect x="0" y="40" width="8" height="8"/>
    <rect x="8" y="32" width="8" height="16"/>
    <rect x="16" y="24" width="8" height="24"/>
    <rect x="24" y="32" width="8" height="16"/>
    <rect x="32" y="40" width="16" height="8"/>
    <rect x="48" y="28" width="8" height="20"/>
    <rect x="56" y="20" width="8" height="28"/>
    <rect x="64" y="12" width="8" height="36"/>
    <rect x="72" y="20" width="8" height="28"/>
    <rect x="80" y="32" width="8" height="16"/>
    <rect x="88" y="40" width="24" height="8"/>
    <rect x="112" y="24" width="8" height="24"/>
    <rect x="120" y="16" width="8" height="32"/>
    <rect x="128" y="8" width="8" height="40"/>
    <rect x="136" y="16" width="8" height="32"/>
    <rect x="144" y="24" width="8" height="24"/>
    <rect x="152" y="32" width="16" height="16"/>
    <rect x="168" y="20" width="8" height="28"/>
    <rect x="176" y="12" width="8" height="36"/>
    <rect x="184" y="20" width="8" height="28"/>
    <rect x="192" y="32" width="8" height="16"/>
    <rect x="200" y="40" width="32" height="8"/>
    <rect x="232" y="28" width="8" height="20"/>
    <rect x="240" y="16" width="8" height="32"/>
    <rect x="248" y="24" width="8" height="24"/>
    <rect x="256" y="32" width="8" height="16"/>
    <rect x="264" y="40" width="8" height="8"/>
    <rect x="272" y="32" width="8" height="16"/>
    <rect x="280" y="24" width="8" height="24"/>
    <rect x="288" y="16" width="8" height="32"/>
    <rect x="296" y="24" width="8" height="24"/>
    <rect x="304" y="32" width="8" height="16"/>
    <rect x="312" y="40" width="8" height="8"/>
  </g>
</svg>
