<svg xmlns="http://www.w3.org/2000/svg" viewBox="0 0 172 18.5">
<!-- SVG created with Arrow, by QuiverAI (https://quiver.ai) -->
  <style type="text/css">.cls-0 {fill:#010101;}
.cls-1 {fill:#FFFFFF;}</style>
  <path class="cls-1" d="m170.4 4.3v-2.5h-11.4v2.4h11.4z"/>
  <path class="cls-1" d="m161.3 10.6h8.9v-2.4h-11v8.5h11.2v-2.4h-8.9l-0.2-3.7z"/>
  <path class="cls-1" d="m87.4 4.2v-2.4h-11.7v2.3l11.7 0.1z"/>
  <path class="cls-1" d="m77.9 10.6h9.4v-2.4h-11.6v8.4h11.6v-2.4h-9.4v-3.6z"/>
  <path class="cls-1" d="m45.4 4.2v-2.4h-12.2v2.3l12.2 0.1z"/>
  <path class="cls-1" d="m35.5 10.5h9.5v-2.4h-11.8v8.5h11.9v-2.4h-9.5l-0.1-3.7z"/>
  <path class="cls-1" d="m57.5 1.8h-2.3l-0.2 14.9h11.9l0.1-2.5h-9.5v-12.4z"/>
  <path class="cls-1" d="m103.4 13.5-5.7-11.6h-2.8l7.1 14.6h2.3l7.2-14.5h-2.5l-5.6 11.5z"/>
  <path class="cls-1" d="m123.2 3.4-7.4 13.3h2.5l5.9-11.7 6.1 11.7h2.5l-7.4-14.8h-2.1l-0.1 1.5z"/>
  <path class="cls-1" d="m137.7 1.8v2.3h5.4v12.4h2.4v-12.3h5.7v-2.4h-13.5z"/>
  <path class="cls-1" d="m1.8 13.3v3.4h4.3v-3.4h-4.3z"/>
  <path class="cls-1" d="m9.2 7.8v8.9h4.5v-8.9h-4.5z"/>
  <path class="cls-1" d="m17.1 2v14.7h4.7v-14.7h-4.7z"/>
</svg>